<svg xmlns="http://www.w3.org/2000/svg" xmlns:xlink="http://www.w3.org/1999/xlink" width="1080" zoomAndPan="magnify" viewBox="0 0 810 809.999993" height="1080" preserveAspectRatio="xMidYMid meet" version="1.0"><path fill="#39ae32" d="M 413.367188 29.078125 L 414.277344 30.894531 L 410.640625 40.894531 L 408.824219 47.257812 L 408.824219 61.800781 L 411.550781 73.617188 L 416.09375 84.523438 L 424.277344 99.066406 L 433.363281 116.335938 L 437.910156 129.96875 L 438.820312 134.515625 L 438.820312 154.511719 L 435.183594 168.144531 L 429.730469 185.414062 L 427.003906 198.140625 L 427.003906 219.046875 L 430.636719 228.132812 L 435.183594 233.589844 L 439.726562 235.40625 L 452.453125 235.40625 L 460.632812 229.953125 L 464.269531 225.40625 L 467.90625 216.320312 L 467.90625 198.140625 L 462.449219 177.234375 L 462.449219 160.875 L 466.085938 152.691406 L 470.632812 146.332031 L 471.539062 148.148438 L 469.722656 152.691406 L 469.722656 162.691406 L 472.449219 169.960938 L 476.992188 175.417969 L 484.265625 181.777344 L 492.445312 189.960938 L 498.808594 199.957031 L 503.351562 209.957031 L 506.988281 224.5 L 506.988281 243.585938 L 503.351562 268.128906 L 503.351562 284.488281 L 506.078125 291.761719 L 511.535156 296.304688 L 517.894531 296.304688 L 521.53125 292.667969 L 523.351562 287.214844 L 523.351562 273.582031 L 519.714844 261.765625 L 515.167969 252.675781 L 518.804688 254.492188 L 526.984375 263.582031 L 534.257812 278.125 L 540.621094 299.941406 L 547.890625 312.664062 L 552.4375 318.121094 L 556.070312 320.847656 L 561.523438 320.847656 L 564.25 318.121094 L 565.160156 315.390625 L 565.160156 302.667969 L 559.707031 288.125 L 556.980469 283.578125 L 557.890625 281.761719 L 564.25 288.125 L 573.339844 301.757812 L 579.703125 314.484375 L 584.25 328.117188 L 585.15625 334.480469 L 585.15625 353.566406 L 581.523438 369.929688 L 581.523438 382.652344 L 582.429688 385.378906 L 587.882812 385.378906 L 593.335938 379.019531 L 599.699219 367.203125 L 603.335938 363.566406 L 603.335938 386.289062 L 605.152344 395.378906 L 610.609375 418.101562 L 610.609375 439.917969 L 607.878906 450.824219 L 604.246094 462.640625 L 600.609375 471.730469 L 599.699219 477.183594 L 599.699219 488.089844 L 600.609375 495.363281 L 606.0625 486.273438 L 606.972656 486.273438 L 606.972656 510.8125 L 604.246094 521.722656 L 599.699219 530.808594 L 592.429688 538.992188 L 586.066406 544.445312 L 582.429688 549.898438 L 582.429688 556.261719 L 588.792969 554.441406 L 593.335938 549.898438 L 597.882812 544.445312 L 598.792969 546.261719 L 593.335938 559.894531 L 586.976562 568.984375 L 577.886719 577.164062 L 567.886719 584.4375 L 565.160156 588.980469 L 565.160156 594.4375 L 566.980469 596.253906 L 573.339844 595.34375 L 579.703125 590.800781 L 578.792969 594.4375 L 573.339844 604.433594 L 565.160156 611.707031 L 550.617188 618.976562 L 542.4375 625.339844 L 537.894531 634.429688 L 531.53125 652.609375 L 525.167969 661.695312 L 516.078125 668.058594 L 514.261719 668.058594 L 516.078125 661.695312 L 516.078125 654.425781 L 513.351562 651.699219 L 505.171875 651.699219 L 496.992188 657.152344 L 496.082031 663.515625 L 500.625 667.152344 L 495.171875 670.785156 L 475.175781 670.785156 L 465.179688 674.421875 L 457.90625 678.964844 L 449.726562 694.417969 L 442.453125 700.78125 L 433.363281 704.417969 L 425.183594 706.234375 L 418.820312 706.234375 L 423.367188 701.691406 L 425.183594 698.964844 L 425.183594 692.601562 L 422.457031 689.875 L 420.640625 688.964844 L 410.640625 688.964844 L 401.550781 697.144531 L 396.097656 703.507812 L 387.007812 708.960938 L 380.648438 711.6875 L 373.375 712.597656 L 375.191406 709.871094 L 377.011719 709.871094 L 378.828125 704.417969 L 378.828125 694.417969 L 375.191406 688.964844 L 366.105469 684.421875 L 357.921875 684.421875 L 348.835938 688.964844 L 341.5625 693.507812 L 337.019531 695.328125 L 319.75 695.328125 L 310.660156 690.78125 L 310.660156 689.875 L 320.65625 687.148438 L 324.292969 683.511719 L 324.292969 677.148438 L 319.75 673.511719 L 317.019531 672.605469 L 309.75 672.605469 L 297.933594 676.238281 L 290.664062 681.695312 L 283.390625 691.691406 L 275.210938 697.144531 L 267.9375 699.871094 L 261.578125 699.871094 L 266.121094 695.328125 L 268.847656 690.78125 L 268.847656 683.511719 L 265.210938 684.421875 L 261.578125 688.054688 L 255.214844 695.328125 L 250.667969 698.054688 L 239.761719 701.691406 L 234.308594 705.324219 L 229.761719 709.871094 L 228.855469 702.597656 L 226.128906 706.234375 L 221.582031 717.140625 L 216.128906 720.777344 L 209.765625 720.777344 L 207.949219 718.960938 L 207.949219 708.050781 L 199.769531 712.597656 L 185.226562 722.59375 L 177.953125 727.140625 L 176.136719 726.230469 L 183.40625 713.507812 L 188.863281 699.871094 L 190.679688 692.601562 L 190.679688 670.785156 L 187.042969 657.152344 L 183.40625 648.0625 L 184.316406 645.335938 L 189.769531 651.699219 L 198.859375 656.242188 L 195.222656 641.699219 L 191.589844 631.703125 L 191.589844 622.613281 L 195.222656 615.339844 L 201.585938 609.886719 L 202.496094 611.707031 L 201.585938 613.523438 L 201.585938 622.613281 L 205.222656 630.792969 L 208.859375 633.519531 L 213.402344 634.429688 L 211.585938 627.15625 L 210.675781 626.25 L 210.675781 620.792969 L 215.21875 612.613281 L 215.21875 606.25 L 209.765625 599.890625 L 197.042969 592.617188 L 190.679688 586.253906 L 184.316406 573.53125 L 181.589844 564.441406 L 181.589844 558.078125 L 185.226562 562.621094 L 188.863281 568.078125 L 197.042969 573.53125 L 199.769531 574.4375 L 206.132812 574.4375 L 209.765625 571.710938 L 209.765625 565.351562 L 201.585938 556.261719 L 194.316406 548.988281 L 189.769531 538.992188 L 188.863281 536.265625 L 187.042969 514.449219 L 180.679688 501.722656 L 175.226562 495.363281 L 185.226562 498.089844 L 189.769531 499.90625 L 192.496094 499.90625 L 192.496094 489.90625 L 190.679688 484.453125 L 184.316406 474.457031 L 177.046875 462.640625 L 172.5 451.734375 L 170.683594 439.007812 L 170.683594 419.011719 L 172.5 408.105469 L 175.226562 400.832031 L 178.863281 389.925781 L 186.132812 376.292969 L 187.042969 379.019531 L 184.316406 389.925781 L 184.316406 408.105469 L 187.042969 419.011719 L 192.496094 426.28125 L 195.222656 428.101562 L 202.496094 428.101562 L 202.496094 409.921875 L 206.132812 410.832031 L 210.675781 389.925781 L 210.675781 377.199219 L 202.496094 352.660156 L 200.675781 347.207031 L 200.675781 329.933594 L 204.3125 319.027344 L 209.765625 309.03125 L 220.675781 298.121094 L 227.945312 291.761719 L 232.492188 285.398438 L 234.308594 279.945312 L 234.308594 269.035156 L 237.035156 271.761719 L 239.761719 278.125 L 239.761719 290.851562 L 235.21875 303.578125 L 231.582031 312.664062 L 231.582031 323.574219 L 235.21875 330.84375 L 238.851562 334.480469 L 241.578125 335.390625 L 249.761719 335.390625 L 256.121094 332.664062 L 261.578125 329.027344 L 266.121094 322.664062 L 267.03125 319.9375 L 267.03125 309.03125 L 264.304688 301.757812 L 257.03125 287.214844 L 254.304688 278.125 L 254.304688 262.675781 L 257.03125 254.492188 L 261.578125 245.40625 L 267.9375 237.222656 L 275.210938 229.953125 L 291.570312 219.046875 L 299.75 211.773438 L 304.296875 202.683594 L 304.296875 189.050781 L 302.476562 182.6875 L 305.207031 185.414062 L 311.566406 198.140625 L 314.292969 208.136719 L 314.292969 219.953125 L 309.75 236.316406 L 303.386719 249.949219 L 301.570312 255.402344 L 301.570312 267.21875 L 304.296875 272.671875 L 311.566406 279.035156 L 314.292969 279.945312 L 329.746094 279.945312 L 338.835938 277.21875 L 347.925781 271.761719 L 354.289062 264.492188 L 355.195312 261.765625 L 355.195312 250.859375 L 352.46875 239.949219 L 348.835938 228.132812 L 348.835938 209.046875 L 352.46875 195.414062 L 357.015625 186.324219 L 364.285156 176.324219 L 373.375 169.054688 L 385.191406 161.78125 L 395.191406 156.328125 L 401.550781 150.875 L 406.097656 143.605469 L 407.914062 138.148438 L 407.914062 119.972656 L 403.371094 102.703125 L 397.917969 84.523438 L 397.007812 79.070312 L 397.007812 61.800781 L 399.734375 50.890625 L 406.097656 38.167969 Z M 413.367188 29.078125 " fill-opacity="1" fill-rule="nonzero"/><path fill="#20821e" d="M 377.011719 329.027344 L 408.824219 329.027344 L 427.003906 331.753906 L 444.273438 336.296875 L 451.542969 339.933594 L 458.816406 341.75 L 476.085938 350.839844 L 484.265625 355.386719 L 498.808594 366.292969 L 506.988281 373.5625 L 511.535156 378.109375 L 522.441406 389.925781 L 531.53125 402.648438 L 541.527344 419.921875 L 549.707031 439.007812 L 553.34375 450.824219 L 556.070312 463.550781 L 557.890625 476.273438 L 557.890625 507.179688 L 554.253906 528.082031 L 547.890625 549.898438 L 538.800781 569.894531 L 529.710938 584.4375 L 520.621094 596.253906 L 510.625 607.160156 L 502.445312 615.339844 L 489.71875 625.339844 L 476.085938 634.429688 L 455.179688 644.425781 L 438.820312 649.878906 L 423.367188 653.515625 L 408.824219 655.335938 L 372.464844 655.335938 L 352.46875 651.699219 L 330.65625 644.425781 L 314.292969 636.246094 L 305.207031 638.972656 L 282.480469 647.152344 L 241.578125 661.695312 L 238.851562 661.695312 L 241.578125 652.609375 L 261.578125 600.796875 L 263.394531 595.34375 L 253.394531 581.710938 L 245.214844 567.167969 L 237.945312 550.808594 L 231.582031 531.71875 L 228.855469 515.359375 L 227.945312 506.269531 L 227.945312 477.183594 L 230.671875 460.820312 L 235.21875 443.550781 L 242.488281 425.375 L 252.488281 407.195312 L 260.667969 395.378906 L 267.9375 386.289062 L 278.847656 374.472656 L 291.570312 363.566406 L 303.386719 355.386719 L 317.019531 347.207031 L 329.746094 340.84375 L 350.652344 333.570312 L 367.921875 329.933594 Z M 377.011719 329.027344 " fill-opacity="1" fill-rule="nonzero"/><path fill="#ebfbea" d="M 375.191406 224.5 L 377.011719 224.5 L 381.554688 240.859375 L 387.917969 256.3125 L 391.554688 263.582031 L 393.371094 270.855469 L 393.371094 286.304688 L 390.644531 295.394531 L 387.917969 300.847656 L 387.917969 302.667969 L 398.824219 302.667969 L 399.734375 303.578125 L 407.914062 303.578125 L 406.097656 299.03125 L 404.277344 294.488281 L 404.277344 284.488281 L 407.007812 288.125 L 411.550781 296.304688 L 418.820312 300.847656 L 425.183594 300.847656 L 435.183594 304.484375 L 443.363281 306.304688 L 443.363281 308.121094 L 447.90625 309.03125 L 447.90625 311.757812 L 438.820312 312.664062 L 431.546875 314.484375 L 431.546875 316.300781 L 448.816406 316.300781 L 456.996094 319.027344 L 463.359375 323.574219 L 468.8125 324.480469 L 473.359375 331.753906 L 474.265625 332.664062 L 486.992188 333.570312 L 491.535156 338.117188 L 494.265625 345.386719 L 496.082031 346.296875 L 490.628906 335.390625 L 485.175781 331.753906 L 475.175781 328.117188 L 471.539062 326.300781 L 466.996094 321.753906 L 460.632812 311.757812 L 457.90625 309.03125 L 454.269531 299.941406 L 454.269531 290.851562 L 456.996094 288.125 L 459.722656 299.941406 L 467.90625 312.664062 L 472.449219 316.300781 L 480.628906 320.847656 L 490.628906 325.390625 L 490.628906 320.847656 L 493.355469 321.753906 L 498.808594 330.84375 L 501.535156 335.390625 L 503.351562 339.023438 L 508.808594 340.84375 L 514.261719 349.023438 L 522.441406 359.019531 L 524.257812 361.75 L 530.621094 363.566406 L 535.164062 368.109375 L 536.984375 372.65625 L 537.894531 369.929688 L 537.894531 360.839844 L 536.074219 356.292969 L 538.800781 355.386719 L 538.800781 357.203125 L 542.4375 359.019531 L 543.347656 361.75 L 546.980469 363.566406 L 547.890625 365.382812 L 547.890625 372.65625 L 549.707031 372.65625 L 551.527344 392.652344 L 555.164062 394.46875 L 559.707031 406.285156 L 560.617188 418.101562 L 566.070312 424.464844 L 566.980469 426.28125 L 570.613281 424.464844 L 569.707031 420.828125 L 571.523438 420.828125 L 573.339844 429.917969 L 576.066406 439.007812 L 576.066406 441.734375 L 577.886719 441.734375 L 578.792969 444.460938 L 583.339844 443.550781 L 587.882812 439.007812 L 592.429688 436.28125 L 592.429688 440.824219 L 586.066406 450.824219 L 581.523438 459.914062 L 579.703125 475.363281 L 584.25 472.636719 L 583.339844 513.539062 L 580.613281 527.175781 L 576.066406 538.082031 L 571.523438 545.351562 L 572.433594 549.898438 L 567.886719 558.988281 L 566.980469 566.257812 L 570.613281 569.894531 L 568.796875 575.347656 L 559.707031 584.4375 L 553.34375 594.4375 L 552.4375 600.796875 L 554.253906 602.617188 L 564.25 603.523438 L 560.617188 607.160156 L 551.527344 610.796875 L 539.710938 613.523438 L 536.984375 613.523438 L 541.527344 615.339844 L 536.984375 618.976562 L 533.347656 620.792969 L 533.347656 628.976562 L 532.4375 629.882812 L 531.53125 636.246094 L 529.710938 642.609375 L 527.894531 646.246094 L 526.984375 646.246094 L 526.078125 638.066406 L 523.351562 634.429688 L 517.894531 635.335938 L 508.808594 646.246094 L 507.898438 648.0625 L 501.535156 650.789062 L 493.355469 656.242188 L 491.535156 658.96875 L 489.71875 664.421875 L 487.902344 666.242188 L 478.8125 665.332031 L 474.265625 668.058594 L 466.996094 667.152344 L 455.179688 673.511719 L 447.90625 682.601562 L 446.089844 686.238281 L 442.453125 691.691406 L 437.910156 692.601562 L 435.183594 693.507812 L 434.273438 683.511719 L 432.457031 680.785156 L 427.910156 678.964844 L 416.09375 678.964844 L 407.007812 682.601562 L 407.007812 684.421875 L 399.734375 686.238281 L 388.828125 693.507812 L 386.101562 693.507812 L 386.101562 691.691406 L 384.28125 691.691406 L 384.28125 689.875 L 386.101562 689.875 L 386.101562 688.054688 L 381.554688 686.238281 L 370.648438 680.785156 L 362.46875 678.058594 L 352.46875 676.238281 L 339.746094 675.332031 L 340.652344 683.511719 L 337.925781 683.511719 L 337.925781 685.328125 L 336.109375 685.328125 L 333.382812 677.148438 L 325.203125 670.785156 L 317.929688 667.152344 L 306.113281 667.152344 L 286.117188 673.511719 L 281.574219 677.148438 L 277.9375 682.601562 L 274.300781 681.695312 L 273.390625 679.875 L 270.664062 678.964844 L 262.484375 678.964844 L 254.304688 685.328125 L 249.761719 688.964844 L 243.398438 691.691406 L 230.671875 692.601562 L 223.402344 698.964844 L 217.949219 707.144531 L 216.128906 708.960938 L 216.128906 702.597656 L 217.039062 698.054688 L 212.492188 700.78125 L 204.3125 702.597656 L 192.496094 710.78125 L 186.132812 717.140625 L 185.226562 715.324219 L 188.863281 709.871094 L 192.496094 704.417969 L 195.222656 704.417969 L 197.042969 699.871094 L 200.675781 690.78125 L 203.40625 686.238281 L 207.039062 674.421875 L 208.859375 674.421875 L 209.765625 669.878906 L 212.492188 663.515625 L 215.21875 653.515625 L 217.039062 653.515625 L 217.949219 649.878906 L 218.855469 648.0625 L 220.675781 648.0625 L 223.402344 639.882812 L 226.128906 625.339844 L 227.945312 619.886719 L 228.855469 609.886719 L 232.492188 608.980469 L 235.21875 603.523438 L 237.035156 592.617188 L 230.671875 587.164062 L 221.582031 574.4375 L 221.582031 572.621094 L 219.765625 572.621094 L 216.128906 560.804688 L 215.21875 559.894531 L 213.402344 550.808594 L 210.675781 544.445312 L 209.765625 536.265625 L 206.132812 524.449219 L 205.222656 505.359375 L 207.949219 498.089844 L 207.039062 486.273438 L 207.039062 469.910156 L 207.949219 459.003906 L 209.765625 449.914062 L 212.492188 441.734375 L 214.3125 433.554688 L 219.765625 422.648438 L 223.402344 416.285156 L 226.128906 408.105469 L 227.945312 387.199219 L 228.855469 384.472656 L 228.855469 373.5625 L 227.035156 368.109375 L 224.308594 352.660156 L 224.308594 347.207031 L 226.128906 347.207031 L 233.398438 360.839844 L 236.125 369.019531 L 237.945312 384.472656 L 246.125 373.5625 L 249.761719 363.566406 L 251.578125 355.386719 L 256.121094 353.566406 L 264.304688 352.660156 L 269.757812 348.113281 L 277.027344 335.390625 L 279.753906 327.207031 L 281.574219 317.210938 L 283.390625 311.757812 L 284.300781 293.578125 L 287.933594 294.488281 L 292.480469 303.578125 L 294.296875 314.484375 L 290.664062 330.84375 L 289.753906 333.570312 L 292.480469 333.570312 L 294.296875 329.933594 L 302.476562 326.300781 L 310.660156 320.847656 L 320.65625 316.300781 L 341.5625 306.304688 L 347.925781 302.667969 L 351.5625 299.03125 L 353.378906 299.03125 L 354.289062 296.304688 L 358.832031 293.578125 L 361.558594 290.851562 L 363.378906 290.851562 L 362.46875 296.304688 L 360.648438 299.941406 L 367.011719 298.121094 L 375.191406 290.851562 L 379.738281 283.578125 L 380.648438 278.125 L 381.554688 261.765625 L 382.464844 259.949219 L 380.648438 259.949219 L 377.011719 245.40625 L 375.191406 239.042969 L 374.285156 228.132812 Z M 377.011719 329.027344 L 362.46875 330.84375 L 347.925781 334.480469 L 329.746094 340.84375 L 315.203125 348.113281 L 300.660156 357.203125 L 289.753906 365.382812 L 277.027344 376.292969 L 265.210938 389.015625 L 256.121094 401.742188 L 248.851562 413.558594 L 241.578125 427.191406 L 234.308594 446.277344 L 229.761719 464.457031 L 227.945312 477.183594 L 227.945312 506.269531 L 230.671875 525.355469 L 232.492188 533.535156 L 239.761719 555.351562 L 248.851562 574.4375 L 257.941406 588.074219 L 263.394531 595.34375 L 260.667969 603.523438 L 246.125 640.792969 L 238.851562 659.878906 L 238.851562 661.695312 L 247.035156 659.878906 L 285.207031 646.246094 L 310.660156 637.15625 L 314.292969 636.246094 L 335.199219 646.246094 L 352.46875 651.699219 L 372.464844 655.335938 L 408.824219 655.335938 L 428.820312 652.609375 L 450.636719 646.246094 L 466.996094 638.972656 L 480.628906 631.703125 L 493.355469 622.613281 L 506.078125 611.707031 L 517.894531 599.890625 L 526.984375 588.074219 L 536.074219 574.4375 L 543.347656 559.894531 L 548.800781 547.171875 L 555.164062 524.449219 L 557.890625 507.179688 L 557.890625 476.273438 L 555.164062 458.09375 L 548.800781 436.28125 L 540.621094 418.101562 L 529.710938 399.921875 L 520.621094 388.105469 L 509.714844 376.292969 L 502.445312 369.929688 L 494.265625 362.65625 L 482.449219 354.476562 L 473.359375 349.023438 L 456.996094 340.84375 L 449.726562 339.023438 L 441.546875 335.390625 L 423.367188 330.84375 L 408.824219 329.027344 Z M 377.011719 329.027344 " fill-opacity="1" fill-rule="nonzero"/><path fill="#1a6716" d="M 470.632812 146.332031 L 471.539062 148.148438 L 469.722656 152.691406 L 469.722656 162.691406 L 472.449219 169.960938 L 476.992188 175.417969 L 484.265625 181.777344 L 492.445312 189.960938 L 498.808594 199.957031 L 503.351562 209.957031 L 506.988281 224.5 L 506.988281 243.585938 L 503.351562 268.128906 L 503.351562 284.488281 L 506.078125 291.761719 L 511.535156 296.304688 L 517.894531 296.304688 L 521.53125 292.667969 L 523.351562 287.214844 L 523.351562 273.582031 L 519.714844 261.765625 L 515.167969 252.675781 L 518.804688 254.492188 L 526.984375 263.582031 L 534.257812 278.125 L 540.621094 299.941406 L 547.890625 312.664062 L 552.4375 318.121094 L 556.070312 320.847656 L 561.523438 320.847656 L 564.25 318.121094 L 565.160156 315.390625 L 565.160156 302.667969 L 559.707031 288.125 L 556.980469 283.578125 L 557.890625 281.761719 L 564.25 288.125 L 573.339844 301.757812 L 579.703125 314.484375 L 584.25 328.117188 L 585.15625 334.480469 L 585.15625 353.566406 L 581.523438 369.929688 L 581.523438 382.652344 L 582.429688 385.378906 L 587.882812 385.378906 L 593.335938 379.019531 L 599.699219 367.203125 L 603.335938 363.566406 L 603.335938 386.289062 L 605.152344 395.378906 L 610.609375 418.101562 L 610.609375 439.917969 L 607.878906 450.824219 L 604.246094 462.640625 L 600.609375 471.730469 L 599.699219 477.183594 L 599.699219 488.089844 L 600.609375 495.363281 L 606.0625 486.273438 L 606.972656 486.273438 L 606.972656 510.8125 L 604.246094 521.722656 L 599.699219 530.808594 L 592.429688 538.992188 L 586.066406 544.445312 L 582.429688 549.898438 L 582.429688 556.261719 L 588.792969 554.441406 L 593.335938 549.898438 L 597.882812 544.445312 L 598.792969 546.261719 L 593.335938 559.894531 L 586.976562 568.984375 L 577.886719 577.164062 L 567.886719 584.4375 L 565.160156 588.980469 L 565.160156 594.4375 L 566.980469 596.253906 L 573.339844 595.34375 L 579.703125 590.800781 L 578.792969 594.4375 L 573.339844 604.433594 L 565.160156 611.707031 L 550.617188 618.976562 L 542.4375 625.339844 L 537.894531 634.429688 L 531.53125 652.609375 L 525.167969 661.695312 L 516.078125 668.058594 L 514.261719 668.058594 L 516.078125 661.695312 L 516.078125 654.425781 L 513.351562 651.699219 L 505.171875 651.699219 L 496.992188 657.152344 L 496.082031 663.515625 L 500.625 667.152344 L 495.171875 670.785156 L 475.175781 670.785156 L 465.179688 674.421875 L 457.90625 678.964844 L 449.726562 694.417969 L 442.453125 700.78125 L 433.363281 704.417969 L 425.183594 706.234375 L 418.820312 706.234375 L 423.367188 701.691406 L 425.183594 698.964844 L 425.183594 692.601562 L 422.457031 689.875 L 420.640625 688.964844 L 410.640625 688.964844 L 401.550781 697.144531 L 396.097656 703.507812 L 387.007812 708.960938 L 380.648438 711.6875 L 373.375 712.597656 L 375.191406 709.871094 L 377.011719 709.871094 L 378.828125 704.417969 L 378.828125 694.417969 L 375.191406 688.964844 L 366.105469 684.421875 L 357.921875 684.421875 L 348.835938 688.964844 L 341.5625 693.507812 L 337.019531 695.328125 L 319.75 695.328125 L 310.660156 690.78125 L 310.660156 689.875 L 320.65625 687.148438 L 324.292969 683.511719 L 324.292969 677.148438 L 319.75 673.511719 L 317.019531 672.605469 L 309.75 672.605469 L 297.933594 676.238281 L 290.664062 681.695312 L 283.390625 691.691406 L 275.210938 697.144531 L 267.9375 699.871094 L 261.578125 699.871094 L 266.121094 695.328125 L 268.847656 690.78125 L 268.847656 683.511719 L 265.210938 684.421875 L 261.578125 688.054688 L 255.214844 695.328125 L 250.667969 698.054688 L 239.761719 701.691406 L 234.308594 705.324219 L 229.761719 709.871094 L 228.855469 702.597656 L 226.128906 706.234375 L 221.582031 717.140625 L 216.128906 720.777344 L 209.765625 720.777344 L 207.949219 718.960938 L 207.949219 708.050781 L 199.769531 712.597656 L 185.226562 722.59375 L 177.953125 727.140625 L 176.136719 726.230469 L 183.40625 713.507812 L 188.863281 699.871094 L 190.679688 692.601562 L 190.679688 670.785156 L 187.042969 657.152344 L 183.40625 648.0625 L 184.316406 645.335938 L 189.769531 651.699219 L 198.859375 656.242188 L 195.222656 641.699219 L 191.589844 631.703125 L 191.589844 622.613281 L 195.222656 615.339844 L 201.585938 609.886719 L 202.496094 611.707031 L 201.585938 613.523438 L 201.585938 622.613281 L 205.222656 630.792969 L 208.859375 633.519531 L 213.402344 634.429688 L 211.585938 627.15625 L 210.675781 626.25 L 210.675781 620.792969 L 215.21875 612.613281 L 215.21875 606.25 L 209.765625 599.890625 L 197.042969 592.617188 L 190.679688 586.253906 L 184.316406 573.53125 L 181.589844 564.441406 L 181.589844 558.078125 L 185.226562 562.621094 L 188.863281 568.078125 L 197.042969 573.53125 L 199.769531 574.4375 L 206.132812 574.4375 L 209.765625 571.710938 L 209.765625 565.351562 L 201.585938 556.261719 L 194.316406 548.988281 L 189.769531 538.992188 L 188.863281 536.265625 L 187.042969 514.449219 L 180.679688 501.722656 L 175.226562 495.363281 L 185.226562 498.089844 L 189.769531 499.90625 L 193.40625 498.996094 L 194.316406 489.90625 L 196.132812 489.90625 L 196.132812 492.636719 L 197.949219 492.636719 L 200.675781 499.90625 L 201.585938 506.269531 L 201.585938 518.085938 L 197.949219 514.449219 L 194.316406 508.996094 L 193.40625 508.996094 L 197.042969 518.992188 L 199.769531 533.535156 L 205.222656 547.171875 L 210.675781 557.167969 L 216.128906 565.351562 L 217.039062 572.621094 L 216.128906 573.53125 L 214.3125 582.621094 L 213.402344 583.527344 L 201.585938 583.527344 L 213.402344 589.890625 L 221.582031 597.164062 L 225.21875 603.523438 L 226.128906 615.339844 L 225.21875 622.613281 L 222.492188 623.523438 L 217.949219 621.703125 L 221.582031 627.15625 L 221.582031 636.246094 L 214.3125 648.972656 L 210.675781 652.609375 L 201.585938 639.882812 L 199.769531 638.972656 L 204.3125 648.0625 L 206.132812 653.515625 L 206.132812 668.96875 L 205.222656 677.148438 L 201.585938 680.785156 L 200.675781 678.058594 L 198.859375 678.058594 L 198.859375 689.875 L 195.222656 700.78125 L 189.769531 709.871094 L 186.132812 715.324219 L 190.679688 711.6875 L 199.769531 704.417969 L 207.039062 700.78125 L 213.402344 698.964844 L 217.039062 698.054688 L 217.039062 707.144531 L 222.492188 698.964844 L 228.855469 692.601562 L 234.308594 691.691406 L 246.125 689.875 L 253.394531 685.328125 L 260.667969 678.964844 L 262.484375 678.058594 L 270.664062 678.058594 L 274.300781 679.875 L 274.300781 681.695312 L 278.847656 680.785156 L 282.480469 675.332031 L 287.933594 671.695312 L 306.113281 666.242188 L 317.929688 666.242188 L 327.929688 671.695312 L 335.199219 678.058594 L 336.109375 685.328125 L 337.925781 685.328125 L 337.925781 683.511719 L 340.652344 683.511719 L 339.746094 675.332031 L 352.46875 675.332031 L 366.105469 678.058594 L 380.648438 684.421875 L 386.101562 688.054688 L 386.101562 689.875 L 384.28125 689.875 L 384.28125 691.691406 L 386.101562 691.691406 L 386.101562 693.507812 L 391.554688 690.78125 L 401.550781 684.421875 L 406.097656 683.511719 L 407.914062 680.785156 L 416.09375 678.058594 L 427.910156 678.058594 L 433.363281 680.785156 L 435.183594 683.511719 L 436.09375 692.601562 L 440.636719 690.78125 L 443.363281 689.875 L 446.089844 685.328125 L 448.816406 680.785156 L 456.089844 671.695312 L 466.996094 666.242188 L 475.175781 666.242188 L 479.722656 664.421875 L 487.902344 665.332031 L 489.71875 663.515625 L 491.535156 658.0625 L 495.171875 653.515625 L 504.261719 648.0625 L 507.898438 648.0625 L 509.714844 644.425781 L 517.894531 634.429688 L 523.351562 633.519531 L 526.984375 638.066406 L 527.894531 645.335938 L 529.710938 637.15625 L 530.621094 636.246094 L 531.53125 629.882812 L 532.4375 626.25 L 532.4375 620.792969 L 539.710938 616.25 L 536.984375 615.339844 L 536.984375 613.523438 L 553.34375 608.980469 L 561.523438 605.34375 L 563.34375 604.433594 L 554.253906 603.523438 L 551.527344 600.796875 L 553.34375 592.617188 L 560.617188 582.621094 L 567.886719 575.347656 L 577.886719 567.167969 L 581.523438 563.53125 L 575.160156 566.257812 L 568.796875 566.257812 L 567.886719 559.894531 L 574.25 548.078125 L 584.25 537.171875 L 592.429688 528.082031 L 597.882812 518.085938 L 597.882812 514.449219 L 591.519531 521.722656 L 585.15625 526.265625 L 584.25 526.265625 L 585.15625 517.175781 L 586.976562 508.085938 L 590.609375 498.996094 L 593.335938 496.269531 L 588.792969 497.179688 L 585.15625 499.90625 L 585.15625 485.363281 L 586.066406 473.546875 L 590.609375 457.1875 L 596.972656 443.550781 L 599.699219 439.007812 L 601.519531 430.828125 L 601.519531 419.011719 L 598.792969 409.011719 L 596.066406 419.921875 L 590.609375 430.828125 L 584.25 437.191406 L 580.613281 438.097656 L 573.339844 423.554688 L 567.886719 410.832031 L 566.070312 402.648438 L 566.070312 375.382812 L 562.433594 382.652344 L 560.617188 383.5625 L 558.796875 387.199219 L 557.890625 395.378906 L 556.070312 395.378906 L 554.253906 389.015625 L 552.4375 384.472656 L 551.527344 368.109375 L 546.980469 356.292969 L 542.4375 345.386719 L 542.4375 334.480469 L 544.253906 327.207031 L 537.894531 335.390625 L 533.347656 346.296875 L 530.621094 357.203125 L 529.710938 355.386719 L 525.167969 356.292969 L 520.621094 348.113281 L 516.078125 343.570312 L 513.351562 335.390625 L 511.535156 326.300781 L 510.625 317.210938 L 509.714844 315.390625 L 507.898438 319.9375 L 506.988281 328.117188 L 508.808594 335.390625 L 507.898438 339.023438 L 505.171875 336.296875 L 500.625 327.207031 L 496.082031 314.484375 L 493.355469 294.488281 L 493.355469 283.578125 L 495.171875 264.492188 L 496.992188 249.039062 L 496.992188 221.773438 L 495.171875 213.589844 L 488.808594 199.046875 L 483.355469 189.960938 L 475.175781 181.777344 L 472.449219 179.960938 L 468.8125 179.960938 L 467.90625 182.6875 L 469.722656 182.6875 L 471.539062 189.960938 L 472.449219 191.777344 L 472.449219 200.867188 L 473.359375 212.683594 L 473.359375 219.953125 L 468.8125 221.773438 L 465.179688 225.40625 L 467.90625 216.320312 L 467.90625 198.140625 L 462.449219 177.234375 L 462.449219 160.875 L 466.085938 152.691406 Z M 470.632812 146.332031 " fill-opacity="1" fill-rule="nonzero"/><path fill="#fbfdfb" d="M 321.566406 411.738281 L 336.109375 411.738281 L 339.746094 417.191406 L 351.5625 444.460938 L 356.105469 453.550781 L 356.105469 460.820312 L 351.5625 469.003906 L 344.289062 477.183594 L 340.652344 480.820312 L 342.472656 485.363281 L 348.835938 494.453125 L 356.105469 503.542969 L 370.648438 518.085938 L 382.464844 527.175781 L 399.734375 537.171875 L 407.914062 540.808594 L 416.09375 542.625 L 420.640625 542.625 L 429.730469 534.445312 L 438.820312 522.628906 L 443.363281 516.265625 L 448.816406 517.175781 L 468.8125 527.175781 L 490.628906 537.171875 L 492.445312 538.992188 L 492.445312 545.351562 L 489.71875 555.351562 L 484.265625 565.351562 L 476.085938 573.53125 L 463.359375 579.894531 L 456.996094 581.710938 L 449.726562 582.621094 L 434.273438 582.621094 L 417.914062 579.894531 L 399.734375 574.4375 L 388.828125 569.894531 L 371.558594 560.804688 L 356.105469 549.898438 L 344.289062 539.898438 L 325.203125 520.8125 L 315.203125 508.085938 L 306.113281 496.269531 L 299.75 485.363281 L 296.117188 477.183594 L 293.390625 467.183594 L 293.390625 447.1875 L 297.023438 435.371094 L 303.386719 423.554688 L 310.660156 415.375 L 317.929688 412.648438 Z M 321.566406 411.738281 " fill-opacity="1" fill-rule="nonzero"/><path fill="#268822" d="M 470.632812 146.332031 L 471.539062 148.148438 L 469.722656 152.691406 L 469.722656 162.691406 L 472.449219 169.960938 L 476.992188 175.417969 L 484.265625 181.777344 L 492.445312 189.960938 L 498.808594 199.957031 L 503.351562 209.957031 L 506.988281 224.5 L 506.988281 243.585938 L 503.351562 268.128906 L 503.351562 284.488281 L 506.078125 291.761719 L 511.535156 296.304688 L 517.894531 296.304688 L 521.53125 292.667969 L 523.351562 287.214844 L 523.351562 273.582031 L 519.714844 261.765625 L 515.167969 252.675781 L 518.804688 254.492188 L 526.984375 263.582031 L 534.257812 278.125 L 540.621094 299.941406 L 547.890625 312.664062 L 552.4375 318.121094 L 556.070312 320.847656 L 561.523438 320.847656 L 564.25 318.121094 L 565.160156 315.390625 L 565.160156 302.667969 L 559.707031 288.125 L 556.980469 283.578125 L 557.890625 281.761719 L 564.25 288.125 L 573.339844 301.757812 L 579.703125 314.484375 L 584.25 328.117188 L 585.15625 334.480469 L 585.15625 353.566406 L 581.523438 369.929688 L 581.523438 382.652344 L 582.429688 385.378906 L 587.882812 385.378906 L 593.335938 379.019531 L 599.699219 367.203125 L 603.335938 363.566406 L 603.335938 386.289062 L 605.152344 395.378906 L 610.609375 418.101562 L 610.609375 439.917969 L 607.878906 450.824219 L 599.699219 459.003906 L 596.972656 466.277344 L 594.246094 475.363281 L 592.429688 483.546875 L 591.519531 494.453125 L 595.15625 495.363281 L 588.792969 497.179688 L 585.15625 499.90625 L 585.15625 485.363281 L 586.066406 473.546875 L 590.609375 457.1875 L 596.972656 443.550781 L 599.699219 439.007812 L 601.519531 430.828125 L 601.519531 419.011719 L 598.792969 409.011719 L 596.066406 419.921875 L 590.609375 430.828125 L 584.25 437.191406 L 580.613281 438.097656 L 573.339844 423.554688 L 567.886719 410.832031 L 566.070312 402.648438 L 566.070312 375.382812 L 562.433594 382.652344 L 560.617188 383.5625 L 558.796875 387.199219 L 557.890625 395.378906 L 556.070312 395.378906 L 554.253906 389.015625 L 552.4375 384.472656 L 551.527344 368.109375 L 546.980469 356.292969 L 542.4375 345.386719 L 542.4375 334.480469 L 544.253906 327.207031 L 537.894531 335.390625 L 533.347656 346.296875 L 530.621094 357.203125 L 529.710938 355.386719 L 525.167969 356.292969 L 520.621094 348.113281 L 516.078125 343.570312 L 513.351562 335.390625 L 511.535156 326.300781 L 510.625 317.210938 L 509.714844 315.390625 L 507.898438 319.9375 L 506.988281 328.117188 L 508.808594 335.390625 L 507.898438 339.023438 L 505.171875 336.296875 L 500.625 327.207031 L 496.082031 314.484375 L 493.355469 294.488281 L 493.355469 283.578125 L 495.171875 264.492188 L 496.992188 249.039062 L 496.992188 221.773438 L 495.171875 213.589844 L 488.808594 199.046875 L 483.355469 189.960938 L 475.175781 181.777344 L 472.449219 179.960938 L 468.8125 179.960938 L 467.90625 182.6875 L 469.722656 182.6875 L 471.539062 189.960938 L 472.449219 191.777344 L 472.449219 200.867188 L 473.359375 212.683594 L 473.359375 219.953125 L 468.8125 221.773438 L 465.179688 225.40625 L 467.90625 216.320312 L 467.90625 198.140625 L 462.449219 177.234375 L 462.449219 160.875 L 466.085938 152.691406 Z M 470.632812 146.332031 " fill-opacity="1" fill-rule="nonzero"/><path fill="#7eed79" d="M 373.375 194.503906 L 374.285156 196.320312 L 372.464844 202.683594 L 372.464844 217.226562 L 379.738281 204.503906 L 382.464844 202.683594 L 382.464844 222.679688 L 385.191406 235.40625 L 386.101562 239.042969 L 388.828125 224.5 L 394.28125 214.5 L 398.824219 208.136719 L 400.644531 209.046875 L 397.007812 218.136719 L 395.191406 226.316406 L 395.191406 244.496094 L 397.917969 259.039062 L 397.917969 279.945312 L 397.007812 291.761719 L 401.550781 293.578125 L 401.550781 285.398438 L 404.277344 276.308594 L 412.460938 257.21875 L 415.1875 244.496094 L 417.003906 246.3125 L 417.914062 249.039062 L 417.914062 259.949219 L 417.003906 265.402344 L 417.003906 280.851562 L 420.640625 289.035156 L 427.003906 296.304688 L 431.546875 299.03125 L 439.726562 299.03125 L 442.453125 298.121094 L 444.273438 294.488281 L 446.089844 285.398438 L 446.089844 274.492188 L 442.453125 259.949219 L 437.910156 248.132812 L 438.820312 246.3125 L 447 254.492188 L 455.179688 267.21875 L 458.816406 277.21875 L 461.542969 289.035156 L 464.269531 281.761719 L 471.539062 272.671875 L 476.992188 269.035156 L 475.175781 273.582031 L 470.632812 284.488281 L 470.632812 301.757812 L 474.265625 310.847656 L 478.8125 317.210938 L 481.539062 318.121094 L 483.355469 313.574219 L 485.175781 312.664062 L 485.175781 301.757812 L 488.808594 287.214844 L 492.445312 279.945312 L 493.355469 279.945312 L 495.171875 303.578125 L 497.898438 317.210938 L 503.351562 330.84375 L 506.078125 336.296875 L 506.078125 338.117188 L 507.898438 338.117188 L 506.078125 325.390625 L 507.898438 318.121094 L 509.714844 312.664062 L 510.625 312.664062 L 514.261719 335.390625 L 516.988281 343.570312 L 523.351562 350.839844 L 525.167969 356.292969 L 529.710938 355.386719 L 535.164062 339.023438 L 539.710938 331.753906 L 544.253906 326.300781 L 545.164062 328.117188 L 543.347656 334.480469 L 543.347656 345.386719 L 547.890625 356.292969 L 552.4375 368.109375 L 553.34375 384.472656 L 556.070312 389.925781 L 556.070312 395.378906 L 557.890625 395.378906 L 557.890625 387.199219 L 560.617188 382.652344 L 562.433594 382.652344 L 564.25 376.292969 L 566.980469 374.472656 L 566.980469 402.648438 L 569.707031 412.648438 L 576.066406 427.191406 L 580.613281 437.191406 L 585.15625 435.371094 L 591.519531 428.101562 L 596.066406 418.101562 L 597.882812 407.195312 L 599.699219 409.011719 L 602.425781 419.011719 L 602.425781 430.828125 L 600.609375 439.007812 L 593.335938 453.550781 L 589.703125 463.550781 L 586.976562 473.546875 L 586.066406 485.363281 L 586.066406 498.996094 L 590.609375 495.363281 L 594.246094 496.269531 L 590.609375 500.816406 L 586.976562 510.8125 L 585.15625 520.8125 L 585.15625 525.355469 L 594.246094 518.085938 L 598.792969 513.539062 L 597.882812 519.902344 L 592.429688 528.992188 L 581.523438 540.808594 L 575.160156 548.078125 L 568.796875 559.894531 L 568.796875 566.257812 L 577.886719 564.441406 L 582.429688 562.621094 L 580.613281 566.257812 L 571.523438 573.53125 L 568.796875 575.347656 L 568.796875 572.621094 L 570.613281 569.894531 L 566.980469 568.078125 L 566.070312 565.351562 L 567.886719 557.167969 L 571.523438 548.988281 L 570.613281 545.351562 L 576.976562 534.445312 L 580.613281 524.449219 L 582.429688 513.539062 L 583.339844 473.546875 L 579.703125 475.363281 L 579.703125 466.277344 L 581.523438 457.1875 L 588.792969 444.460938 L 591.519531 440.824219 L 591.519531 437.191406 L 587.882812 439.917969 L 586.066406 439.917969 L 584.25 443.550781 L 582.429688 445.371094 L 577.886719 444.460938 L 577.886719 441.734375 L 576.066406 441.734375 L 571.523438 427.191406 L 571.523438 420.828125 L 570.613281 424.464844 L 566.980469 427.191406 L 561.523438 419.921875 L 559.707031 418.101562 L 558.796875 406.285156 L 554.253906 394.46875 L 550.617188 392.652344 L 549.707031 382.652344 L 549.707031 372.65625 L 547.890625 372.65625 L 546.074219 363.566406 L 541.527344 359.019531 L 538.800781 357.203125 L 538.800781 355.386719 L 536.984375 357.203125 L 538.800781 362.65625 L 538.800781 369.929688 L 536.984375 373.5625 L 535.164062 371.746094 L 533.347656 367.203125 L 529.710938 363.566406 L 523.351562 361.75 L 514.261719 349.933594 L 508.808594 342.660156 L 508.808594 340.84375 L 505.171875 339.933594 L 500.625 335.390625 L 497.898438 330.84375 L 492.445312 321.753906 L 490.628906 320.847656 L 490.628906 325.390625 L 482.449219 322.664062 L 476.992188 319.9375 L 468.8125 314.484375 L 463.359375 307.210938 L 458.816406 299.941406 L 456.089844 289.941406 L 455.179688 290.851562 L 455.179688 299.941406 L 458.816406 309.03125 L 458.816406 310.847656 L 461.542969 311.757812 L 466.085938 318.121094 L 468.8125 322.664062 L 471.539062 324.480469 L 471.539062 326.300781 L 476.992188 328.117188 L 488.808594 332.664062 L 493.355469 338.117188 L 496.082031 343.570312 L 496.082031 346.296875 L 493.355469 345.386719 L 489.71875 337.207031 L 486.992188 334.480469 L 474.265625 333.570312 L 469.722656 328.117188 L 468.8125 324.480469 L 463.359375 324.480469 L 455.179688 319.027344 L 448.816406 317.210938 L 433.363281 317.210938 L 430.636719 314.484375 L 430.636719 313.574219 L 438.820312 311.757812 L 447.90625 311.757812 L 447.90625 309.03125 L 443.363281 308.121094 L 443.363281 306.304688 L 435.183594 305.394531 L 425.183594 301.757812 L 418.820312 301.757812 L 410.640625 296.304688 L 405.1875 286.304688 L 405.1875 294.488281 L 408.824219 301.757812 L 407.914062 304.484375 L 399.734375 304.484375 L 395.191406 303.578125 L 387.007812 303.578125 L 387.917969 299.03125 L 391.554688 290.851562 L 392.464844 286.304688 L 392.464844 270.855469 L 388.828125 259.039062 L 385.191406 251.765625 L 378.828125 235.40625 L 377.011719 229.042969 L 377.011719 224.5 L 375.191406 228.132812 L 376.101562 239.042969 L 380.648438 255.402344 L 380.648438 259.949219 L 382.464844 259.949219 L 381.554688 278.125 L 379.738281 285.398438 L 377.011719 288.125 L 377.921875 283.578125 L 377.921875 269.945312 L 374.285156 255.402344 L 369.738281 243.585938 L 366.105469 229.953125 L 366.105469 209.046875 L 370.648438 198.140625 Z M 373.375 194.503906 " fill-opacity="1" fill-rule="nonzero"/><path fill="#3cab32" d="M 226.128906 309.9375 L 227.035156 312.664062 L 225.21875 315.390625 L 225.21875 329.027344 L 228.855469 340.84375 L 236.125 356.292969 L 237.945312 360.839844 L 239.761719 347.207031 L 241.578125 349.933594 L 246.125 367.203125 L 249.761719 363.566406 L 247.941406 371.746094 L 244.304688 377.199219 L 238.851562 384.472656 L 237.035156 386.289062 L 235.21875 369.019531 L 231.582031 359.019531 L 226.128906 349.023438 L 226.128906 347.207031 L 224.308594 347.207031 L 227.945312 368.109375 L 229.761719 373.5625 L 229.761719 384.472656 L 227.945312 395.378906 L 227.035156 408.105469 L 223.402344 419.011719 L 217.039062 429.007812 L 214.3125 436.28125 L 211.585938 449.007812 L 210.675781 449.914062 L 208.859375 459.003906 L 207.949219 469.910156 L 207.949219 486.273438 L 208.859375 498.089844 L 206.132812 505.359375 L 207.039062 524.449219 L 210.675781 536.265625 L 212.492188 547.171875 L 215.21875 553.535156 L 216.128906 559.894531 L 219.765625 568.984375 L 219.765625 572.621094 L 221.582031 572.621094 L 229.761719 584.4375 L 234.308594 588.980469 L 237.945312 592.617188 L 236.125 603.523438 L 232.492188 610.796875 L 229.761719 609.886719 L 227.945312 623.523438 L 226.128906 630.792969 L 224.308594 639.882812 L 220.675781 648.0625 L 218.855469 648.0625 L 217.039062 653.515625 L 215.21875 653.515625 L 213.402344 663.515625 L 208.859375 674.421875 L 207.039062 674.421875 L 205.222656 684.421875 L 202.496094 689.875 L 198.859375 698.054688 L 195.222656 704.417969 L 193.40625 704.417969 L 196.132812 696.238281 L 197.949219 689.875 L 198.859375 678.058594 L 200.675781 678.058594 L 202.496094 679.875 L 204.3125 677.148438 L 205.222656 668.96875 L 205.222656 653.515625 L 200.675781 641.699219 L 199.769531 638.972656 L 202.496094 639.882812 L 210.675781 651.699219 L 216.128906 644.425781 L 220.675781 636.246094 L 220.675781 627.15625 L 217.949219 623.523438 L 217.949219 621.703125 L 224.308594 622.613281 L 225.21875 610.796875 L 223.402344 601.707031 L 217.949219 594.4375 L 210.675781 588.980469 L 201.585938 584.4375 L 200.675781 582.621094 L 213.402344 582.621094 L 215.21875 573.53125 L 216.128906 568.984375 L 213.402344 562.621094 L 206.132812 550.808594 L 200.675781 538.992188 L 197.949219 528.082031 L 194.316406 512.632812 L 191.589844 508.085938 L 192.496094 506.269531 L 197.949219 512.632812 L 200.675781 517.175781 L 200.675781 506.269531 L 198.859375 498.089844 L 197.949219 492.636719 L 196.132812 492.636719 L 196.132812 489.90625 L 194.316406 489.90625 L 194.316406 498.996094 L 193.40625 498.996094 L 191.589844 485.363281 L 184.316406 474.457031 L 177.046875 462.640625 L 172.5 451.734375 L 170.683594 439.007812 L 170.683594 419.011719 L 172.5 408.105469 L 175.226562 400.832031 L 178.863281 389.925781 L 186.132812 376.292969 L 187.042969 379.019531 L 184.316406 389.925781 L 184.316406 408.105469 L 187.042969 419.011719 L 192.496094 426.28125 L 195.222656 428.101562 L 202.496094 428.101562 L 202.496094 409.921875 L 207.039062 411.738281 L 207.039062 416.285156 L 213.402344 421.738281 L 217.039062 423.554688 L 217.039062 398.105469 L 218.855469 396.289062 L 220.675781 407.195312 L 221.582031 409.011719 L 224.308594 404.46875 L 224.308594 385.378906 L 219.765625 365.382812 L 216.128906 352.660156 L 215.21875 349.023438 L 215.21875 332.664062 L 217.039062 324.480469 L 221.582031 315.390625 Z M 226.128906 309.9375 " fill-opacity="1" fill-rule="nonzero"/><path fill="#73d66e" d="M 550.617188 594.4375 L 552.4375 594.4375 L 552.4375 600.796875 L 554.253906 602.617188 L 564.25 603.523438 L 560.617188 607.160156 L 551.527344 610.796875 L 539.710938 613.523438 L 536.984375 613.523438 L 541.527344 615.339844 L 536.984375 618.976562 L 533.347656 620.792969 L 533.347656 628.976562 L 532.4375 629.882812 L 531.53125 636.246094 L 529.710938 642.609375 L 527.894531 646.246094 L 526.984375 646.246094 L 526.078125 638.066406 L 523.351562 634.429688 L 517.894531 635.335938 L 508.808594 646.246094 L 507.898438 648.0625 L 501.535156 650.789062 L 493.355469 656.242188 L 491.535156 658.96875 L 489.71875 664.421875 L 487.902344 666.242188 L 478.8125 665.332031 L 474.265625 668.058594 L 466.996094 667.152344 L 455.179688 673.511719 L 447.90625 682.601562 L 446.089844 686.238281 L 442.453125 691.691406 L 437.910156 692.601562 L 435.183594 693.507812 L 434.273438 683.511719 L 432.457031 680.785156 L 427.910156 678.964844 L 416.09375 678.964844 L 407.007812 682.601562 L 407.007812 684.421875 L 399.734375 686.238281 L 388.828125 693.507812 L 386.101562 693.507812 L 386.101562 691.691406 L 384.28125 691.691406 L 384.28125 689.875 L 386.101562 689.875 L 386.101562 688.054688 L 381.554688 686.238281 L 370.648438 680.785156 L 362.46875 678.058594 L 352.46875 676.238281 L 339.746094 675.332031 L 340.652344 683.511719 L 337.925781 683.511719 L 337.925781 685.328125 L 336.109375 685.328125 L 333.382812 677.148438 L 325.203125 670.785156 L 317.929688 667.152344 L 306.113281 667.152344 L 286.117188 673.511719 L 281.574219 677.148438 L 277.9375 682.601562 L 274.300781 681.695312 L 273.390625 679.875 L 270.664062 678.964844 L 262.484375 678.964844 L 254.304688 685.328125 L 249.761719 688.964844 L 243.398438 691.691406 L 230.671875 692.601562 L 223.402344 698.964844 L 217.949219 707.144531 L 216.128906 708.960938 L 216.128906 702.597656 L 217.039062 698.054688 L 212.492188 700.78125 L 204.3125 702.597656 L 192.496094 710.78125 L 186.132812 717.140625 L 185.226562 715.324219 L 188.863281 709.871094 L 192.496094 704.417969 L 193.40625 706.234375 L 195.222656 706.234375 L 195.222656 704.417969 L 207.949219 698.054688 L 214.3125 694.417969 L 216.128906 690.78125 L 231.582031 682.601562 L 237.035156 680.785156 L 247.035156 681.695312 L 249.761719 675.332031 L 257.941406 672.605469 L 253.394531 678.058594 L 253.394531 680.785156 L 257.03125 676.238281 L 264.304688 672.605469 L 280.664062 672.605469 L 285.207031 669.878906 L 300.660156 666.242188 L 301.570312 664.421875 L 289.753906 665.332031 L 293.390625 661.695312 L 303.386719 659.878906 L 314.292969 654.425781 L 319.75 654.425781 L 328.835938 661.695312 L 330.65625 663.515625 L 324.292969 663.515625 L 320.65625 660.789062 L 320.65625 658.0625 L 315.203125 658.0625 L 315.203125 660.789062 L 312.476562 662.605469 L 319.75 663.515625 L 319.75 665.332031 L 325.203125 667.152344 L 335.199219 674.421875 L 335.199219 676.238281 L 337.019531 676.238281 L 337.019531 672.605469 L 345.199219 672.605469 L 361.558594 674.421875 L 376.101562 678.058594 L 385.191406 678.058594 L 388.828125 676.238281 L 375.191406 674.421875 L 357.015625 672.605469 L 351.5625 670.785156 L 351.5625 668.96875 L 359.742188 667.152344 L 370.648438 667.152344 L 379.738281 668.96875 L 387.007812 673.511719 L 398.824219 675.332031 L 403.371094 676.238281 L 409.734375 674.421875 L 424.277344 673.511719 L 437.910156 673.511719 L 438.820312 676.238281 L 440.636719 676.238281 L 441.546875 672.605469 L 447 668.96875 L 454.269531 667.152344 L 454.269531 665.332031 L 474.265625 657.152344 L 485.175781 654.425781 L 488.808594 649.878906 L 501.535156 647.152344 L 510.625 639.882812 L 518.804688 631.703125 L 521.53125 629.882812 L 527.894531 630.792969 L 528.804688 622.613281 L 530.621094 622.613281 L 531.53125 616.25 L 534.257812 611.707031 L 543.347656 607.160156 L 547.890625 606.25 L 549.707031 595.34375 Z M 550.617188 594.4375 " fill-opacity="1" fill-rule="nonzero"/><path fill="#2a9022" d="M 234.308594 269.035156 L 237.035156 271.761719 L 239.761719 278.125 L 239.761719 290.851562 L 235.21875 303.578125 L 231.582031 312.664062 L 231.582031 323.574219 L 235.21875 330.84375 L 238.851562 334.480469 L 241.578125 335.390625 L 249.761719 335.390625 L 256.121094 332.664062 L 260.667969 330.84375 L 261.578125 333.570312 L 254.304688 345.386719 L 251.578125 354.476562 L 250.667969 363.566406 L 245.214844 368.109375 L 240.671875 349.933594 L 238.851562 362.65625 L 236.125 359.019531 L 228.855469 342.660156 L 226.128906 336.296875 L 224.308594 329.027344 L 224.308594 315.390625 L 226.128906 310.847656 L 219.765625 319.9375 L 217.039062 327.207031 L 216.128906 332.664062 L 216.128906 349.023438 L 219.765625 362.65625 L 224.308594 379.925781 L 225.21875 385.378906 L 225.21875 404.46875 L 222.492188 409.921875 L 219.765625 407.195312 L 217.949219 398.105469 L 217.949219 420.828125 L 217.039062 423.554688 L 212.492188 421.738281 L 206.132812 416.285156 L 207.039062 408.105469 L 210.675781 389.925781 L 210.675781 377.199219 L 202.496094 352.660156 L 200.675781 347.207031 L 200.675781 329.933594 L 204.3125 319.027344 L 209.765625 309.03125 L 220.675781 298.121094 L 227.945312 291.761719 L 232.492188 285.398438 L 234.308594 279.945312 Z M 234.308594 269.035156 " fill-opacity="1" fill-rule="nonzero"/><path fill="#84e47c" d="M 210.675781 428.101562 L 213.402344 429.917969 L 213.402344 431.734375 L 215.21875 431.734375 L 211.585938 449.007812 L 210.675781 449.914062 L 208.859375 459.003906 L 207.949219 469.910156 L 207.949219 486.273438 L 208.859375 498.089844 L 206.132812 505.359375 L 207.039062 524.449219 L 210.675781 536.265625 L 212.492188 547.171875 L 215.21875 553.535156 L 216.128906 559.894531 L 219.765625 568.984375 L 219.765625 572.621094 L 221.582031 572.621094 L 229.761719 584.4375 L 234.308594 588.980469 L 237.945312 592.617188 L 236.125 603.523438 L 232.492188 610.796875 L 229.761719 609.886719 L 227.945312 623.523438 L 226.128906 630.792969 L 224.308594 639.882812 L 220.675781 648.0625 L 218.855469 648.0625 L 217.039062 653.515625 L 215.21875 653.515625 L 213.402344 663.515625 L 208.859375 674.421875 L 207.039062 674.421875 L 205.222656 684.421875 L 202.496094 689.875 L 198.859375 698.054688 L 195.222656 704.417969 L 193.40625 704.417969 L 196.132812 696.238281 L 197.949219 689.875 L 198.859375 678.058594 L 200.675781 678.058594 L 202.496094 679.875 L 204.3125 677.148438 L 205.222656 668.96875 L 205.222656 653.515625 L 200.675781 641.699219 L 199.769531 638.972656 L 202.496094 639.882812 L 210.675781 651.699219 L 216.128906 644.425781 L 220.675781 636.246094 L 220.675781 627.15625 L 217.949219 623.523438 L 217.949219 621.703125 L 224.308594 622.613281 L 225.21875 610.796875 L 223.402344 601.707031 L 217.949219 594.4375 L 210.675781 588.980469 L 201.585938 584.4375 L 200.675781 582.621094 L 213.402344 582.621094 L 215.21875 573.53125 L 216.128906 568.984375 L 213.402344 562.621094 L 206.132812 550.808594 L 200.675781 538.992188 L 197.949219 528.082031 L 194.316406 512.632812 L 191.589844 508.085938 L 192.496094 506.269531 L 197.949219 512.632812 L 200.675781 517.175781 L 200.675781 506.269531 L 198.859375 498.089844 L 196.132812 489 L 197.042969 486.273438 L 199.769531 490.816406 L 198.859375 483.546875 L 195.222656 472.636719 L 189.769531 462.640625 L 189.769531 459.003906 L 192.496094 459.003906 L 196.132812 465.367188 L 197.949219 469.003906 L 199.769531 473.546875 L 202.496094 479 L 203.40625 479 L 203.40625 465.367188 L 207.949219 449.914062 L 209.765625 443.550781 Z M 210.675781 428.101562 " fill-opacity="1" fill-rule="nonzero"/><path fill="#85e57e" d="M 566.070312 374.472656 L 566.980469 374.472656 L 566.980469 402.648438 L 569.707031 412.648438 L 576.066406 427.191406 L 580.613281 437.191406 L 585.15625 435.371094 L 591.519531 428.101562 L 596.066406 418.101562 L 597.882812 407.195312 L 599.699219 409.011719 L 602.425781 419.011719 L 602.425781 430.828125 L 600.609375 439.007812 L 593.335938 453.550781 L 589.703125 463.550781 L 586.976562 473.546875 L 586.066406 485.363281 L 586.066406 498.996094 L 590.609375 495.363281 L 594.246094 496.269531 L 590.609375 500.816406 L 586.976562 510.8125 L 585.15625 520.8125 L 585.15625 525.355469 L 594.246094 518.085938 L 598.792969 513.539062 L 597.882812 519.902344 L 592.429688 528.992188 L 581.523438 540.808594 L 575.160156 548.078125 L 568.796875 559.894531 L 568.796875 566.257812 L 577.886719 564.441406 L 582.429688 562.621094 L 580.613281 566.257812 L 571.523438 573.53125 L 568.796875 575.347656 L 568.796875 572.621094 L 570.613281 569.894531 L 566.980469 568.078125 L 566.070312 565.351562 L 567.886719 557.167969 L 571.523438 548.988281 L 570.613281 545.351562 L 576.976562 534.445312 L 580.613281 524.449219 L 582.429688 513.539062 L 583.339844 473.546875 L 579.703125 475.363281 L 579.703125 466.277344 L 581.523438 457.1875 L 588.792969 444.460938 L 591.519531 440.824219 L 591.519531 437.191406 L 587.882812 439.917969 L 586.066406 439.917969 L 584.25 443.550781 L 582.429688 445.371094 L 577.886719 444.460938 L 577.886719 441.734375 L 576.066406 441.734375 L 571.523438 427.191406 L 571.523438 420.828125 L 570.613281 424.464844 L 566.980469 427.191406 L 561.523438 419.921875 L 559.707031 418.101562 L 558.796875 406.285156 L 556.980469 399.921875 L 558.796875 399.921875 L 557.890625 387.199219 L 560.617188 382.652344 L 562.433594 382.652344 L 564.25 376.292969 Z M 566.070312 374.472656 " fill-opacity="1" fill-rule="nonzero"/><path fill="#75ee6c" d="M 373.375 194.503906 L 374.285156 196.320312 L 372.464844 202.683594 L 372.464844 217.226562 L 379.738281 204.503906 L 382.464844 202.683594 L 382.464844 222.679688 L 385.191406 235.40625 L 386.101562 239.042969 L 388.828125 224.5 L 394.28125 214.5 L 398.824219 208.136719 L 400.644531 209.046875 L 397.007812 218.136719 L 395.191406 226.316406 L 395.191406 244.496094 L 397.917969 259.039062 L 397.917969 279.945312 L 397.007812 288.125 L 396.097656 284.488281 L 394.28125 284.488281 L 394.28125 269.945312 L 393.371094 266.308594 L 391.554688 266.308594 L 387.917969 257.21875 L 382.464844 245.40625 L 377.011719 229.042969 L 377.011719 224.5 L 375.191406 228.132812 L 376.101562 239.042969 L 380.648438 255.402344 L 380.648438 259.949219 L 382.464844 259.949219 L 381.554688 278.125 L 379.738281 285.398438 L 377.011719 288.125 L 377.921875 283.578125 L 377.921875 269.945312 L 374.285156 255.402344 L 369.738281 243.585938 L 366.105469 229.953125 L 366.105469 209.046875 L 370.648438 198.140625 Z M 373.375 194.503906 " fill-opacity="1" fill-rule="nonzero"/><path fill="#1a6615" d="M 186.132812 376.292969 L 187.042969 379.019531 L 184.316406 389.925781 L 184.316406 408.105469 L 187.042969 419.011719 L 192.496094 426.28125 L 195.222656 428.101562 L 202.496094 428.101562 L 202.496094 419.921875 L 203.40625 415.375 L 205.222656 419.011719 L 207.949219 425.375 L 207.949219 436.28125 L 202.496094 440.824219 L 194.316406 439.007812 L 188.863281 434.464844 L 182.5 424.464844 L 180.679688 417.191406 L 178.863281 416.285156 L 178.863281 430.828125 L 182.5 452.640625 L 187.953125 467.183594 L 195.222656 479 L 196.132812 483.546875 L 194.316406 483.546875 L 194.316406 489 L 190.679688 484.453125 L 184.316406 474.457031 L 177.046875 462.640625 L 172.5 451.734375 L 170.683594 439.007812 L 170.683594 419.011719 L 172.5 408.105469 L 175.226562 400.832031 L 178.863281 389.925781 Z M 186.132812 376.292969 " fill-opacity="1" fill-rule="nonzero"/><path fill="#76e86a" d="M 226.128906 309.9375 L 227.035156 312.664062 L 225.21875 315.390625 L 225.21875 329.027344 L 228.855469 340.84375 L 236.125 356.292969 L 237.945312 360.839844 L 239.761719 347.207031 L 241.578125 349.933594 L 246.125 367.203125 L 249.761719 363.566406 L 247.941406 371.746094 L 244.304688 377.199219 L 238.851562 384.472656 L 237.035156 386.289062 L 235.21875 369.019531 L 231.582031 359.019531 L 226.128906 349.023438 L 226.128906 347.207031 L 224.308594 347.207031 L 227.945312 368.109375 L 229.761719 373.5625 L 229.761719 384.472656 L 227.945312 395.378906 L 227.035156 408.105469 L 223.402344 419.011719 L 217.039062 429.007812 L 215.21875 431.734375 L 216.128906 423.554688 L 217.039062 420.828125 L 217.039062 398.105469 L 218.855469 396.289062 L 220.675781 407.195312 L 221.582031 409.011719 L 224.308594 404.46875 L 224.308594 385.378906 L 219.765625 365.382812 L 216.128906 352.660156 L 215.21875 349.023438 L 215.21875 332.664062 L 217.039062 324.480469 L 221.582031 315.390625 Z M 226.128906 309.9375 " fill-opacity="1" fill-rule="nonzero"/><path fill="#23751d" d="M 201.585938 609.886719 L 202.496094 611.707031 L 201.585938 613.523438 L 201.585938 622.613281 L 205.222656 630.792969 L 207.949219 638.066406 L 211.585938 640.792969 L 216.128906 638.972656 L 217.949219 634.429688 L 217.949219 627.15625 L 219.765625 624.429688 L 221.582031 627.15625 L 221.582031 636.246094 L 214.3125 648.972656 L 210.675781 652.609375 L 201.585938 639.882812 L 199.769531 638.972656 L 204.3125 648.0625 L 206.132812 653.515625 L 206.132812 668.96875 L 205.222656 677.148438 L 201.585938 680.785156 L 200.675781 678.058594 L 198.859375 678.058594 L 198.859375 689.875 L 195.222656 700.78125 L 189.769531 709.871094 L 188.863281 707.144531 L 191.589844 701.691406 L 191.589844 697.144531 L 189.769531 698.054688 L 190.679688 692.601562 L 190.679688 670.785156 L 187.042969 657.152344 L 183.40625 648.0625 L 184.316406 645.335938 L 189.769531 651.699219 L 198.859375 656.242188 L 195.222656 641.699219 L 191.589844 631.703125 L 191.589844 622.613281 L 195.222656 615.339844 Z M 201.585938 609.886719 " fill-opacity="1" fill-rule="nonzero"/><path fill="#9ceb9a" d="M 314.292969 654.425781 L 319.75 654.425781 L 328.835938 661.695312 L 330.65625 663.515625 L 324.292969 663.515625 L 320.65625 660.789062 L 320.65625 658.0625 L 315.203125 658.0625 L 315.203125 660.789062 L 312.476562 662.605469 L 319.75 663.515625 L 319.75 665.332031 L 321.566406 666.242188 L 309.75 666.242188 L 287.933594 672.605469 L 281.574219 677.148438 L 277.9375 682.601562 L 274.300781 681.695312 L 273.390625 679.875 L 270.664062 678.964844 L 262.484375 678.964844 L 254.304688 685.328125 L 249.761719 688.964844 L 243.398438 691.691406 L 230.671875 692.601562 L 223.402344 698.964844 L 217.949219 707.144531 L 216.128906 708.960938 L 216.128906 702.597656 L 217.039062 698.054688 L 212.492188 700.78125 L 204.3125 702.597656 L 192.496094 710.78125 L 186.132812 717.140625 L 185.226562 715.324219 L 188.863281 709.871094 L 192.496094 704.417969 L 193.40625 706.234375 L 195.222656 706.234375 L 195.222656 704.417969 L 207.949219 698.054688 L 214.3125 694.417969 L 216.128906 690.78125 L 231.582031 682.601562 L 237.035156 680.785156 L 247.035156 681.695312 L 249.761719 675.332031 L 257.941406 672.605469 L 253.394531 678.058594 L 253.394531 680.785156 L 257.03125 676.238281 L 264.304688 672.605469 L 280.664062 672.605469 L 285.207031 669.878906 L 300.660156 666.242188 L 301.570312 664.421875 L 289.753906 665.332031 L 293.390625 661.695312 L 303.386719 659.878906 Z M 314.292969 654.425781 " fill-opacity="1" fill-rule="nonzero"/><path fill="#1a6818" d="M 234.308594 269.035156 L 237.035156 271.761719 L 239.761719 278.125 L 239.761719 290.851562 L 235.21875 303.578125 L 233.398438 307.210938 L 230.671875 307.210938 L 229.761719 305.394531 L 220.675781 313.574219 L 216.128906 318.121094 L 211.585938 327.207031 L 209.765625 335.390625 L 209.765625 348.113281 L 211.585938 357.203125 L 211.585938 362.65625 L 210.675781 363.566406 L 210.675781 369.929688 L 207.949219 369.019531 L 202.496094 352.660156 L 200.675781 347.207031 L 200.675781 329.933594 L 204.3125 319.027344 L 209.765625 309.03125 L 220.675781 298.121094 L 227.945312 291.761719 L 232.492188 285.398438 L 234.308594 279.945312 Z M 234.308594 269.035156 " fill-opacity="1" fill-rule="nonzero"/><path fill="#69e162" d="M 509.714844 312.664062 L 510.625 312.664062 L 514.261719 335.390625 L 516.988281 343.570312 L 523.351562 350.839844 L 525.167969 356.292969 L 529.710938 355.386719 L 535.164062 339.023438 L 539.710938 331.753906 L 544.253906 326.300781 L 545.164062 328.117188 L 543.347656 334.480469 L 543.347656 345.386719 L 547.890625 356.292969 L 552.4375 368.109375 L 553.34375 384.472656 L 556.070312 389.925781 L 556.070312 395.378906 L 557.890625 395.378906 L 558.796875 391.742188 L 558.796875 399.921875 L 556.980469 399.921875 L 554.253906 394.46875 L 550.617188 392.652344 L 549.707031 382.652344 L 549.707031 372.65625 L 547.890625 372.65625 L 546.074219 363.566406 L 541.527344 359.019531 L 538.800781 357.203125 L 538.800781 355.386719 L 536.984375 357.203125 L 538.800781 362.65625 L 538.800781 369.929688 L 536.984375 373.5625 L 535.164062 371.746094 L 533.347656 367.203125 L 529.710938 363.566406 L 523.351562 361.75 L 514.261719 349.933594 L 508.808594 342.660156 L 508.808594 340.84375 L 506.988281 340.84375 L 507.898438 335.390625 L 506.078125 325.390625 L 507.898438 318.121094 Z M 509.714844 312.664062 " fill-opacity="1" fill-rule="nonzero"/><path fill="#208a23" d="M 408.824219 69.070312 L 410.640625 71.796875 L 415.1875 83.613281 L 422.457031 95.429688 L 433.363281 116.335938 L 437.910156 129.96875 L 438.820312 134.515625 L 438.820312 154.511719 L 435.183594 168.144531 L 429.730469 185.414062 L 427.003906 198.140625 L 420.640625 200.867188 L 422.457031 189.960938 L 426.09375 177.234375 L 426.09375 170.871094 L 429.730469 156.328125 L 431.546875 142.695312 L 430.636719 134.515625 L 427.910156 120.878906 L 423.367188 109.972656 L 418.820312 101.792969 L 418.820312 98.15625 L 417.003906 98.15625 L 412.460938 87.25 L 408.824219 75.433594 Z M 408.824219 69.070312 " fill-opacity="1" fill-rule="nonzero"/></svg>